<svg xmlns="http://www.w3.org/2000/svg" viewBox="0 0 75 24" width="75" height="24">
  <path d="M9.24 12.02c0-.55-.05-1.08-.14-1.59H4.7v3.01h2.56a3.57 3.57 0 01-1.55 2.35v1.95h2.5c1.47-1.35 2.32-3.34 2.32-5.72z" fill="#4285F4"/>
  <path d="M4.7 20c2.1 0 3.86-.7 5.15-1.9l-2.5-1.95c-.7.46-1.59.74-2.65.74-2.04 0-3.76-1.38-4.38-3.23H.17v2.01C1.43 18.15 2.96 20 4.7 20z" fill="#34A853"/>
  <path d="M.32 14.66c-.38-1.12-.38-2.32 0-3.44V9.21H.17A7.46 7.46 0 000 12.02c0 1.23.28 2.4.17 2.64z" fill="#FBBC05"/>
  <path d="M4.7 5.77c1.14 0 2.16.4 2.97 1.17l2.22-2.22C8.56 3.5 6.8 2.7 4.7 2.7 2.96 2.7 1.43 4.15.17 5.87l2.15 1.66c.62-1.85 2.34-3.23 4.38-3.23z" fill="#EA4335"/>
  <text x="24" y="19" font-family="'Google Sans','Product Sans',Arial,sans-serif" font-weight="500" font-size="20" fill="#5f6368">Google</text>
</svg>
