<svg xmlns="http://www.w3.org/2000/svg" viewBox="0 0 544 184" width="544" height="184">
  <path d="M130.6 94.4c0 25.5-20 44.4-44.5 44.4S41.5 119.9 41.5 94.4 61.6 50 86.1 50s44.5 19 44.5 44.4zm-19.5 0c0-16-11.6-26.9-25-26.9s-25 10.9-25 26.9 11.6 26.9 25 26.9 25-10.9 25-26.9z" fill="#EA4335"/>
  <path d="M227.3 94.4c0 25.5-20 44.4-44.5 44.4s-44.5-18.9-44.5-44.4S158.3 50 182.8 50s44.5 19 44.5 44.4zm-19.5 0c0-16-11.6-26.9-25-26.9s-25 10.9-25 26.9 11.6 26.9 25 26.9 25-10.9 25-26.9z" fill="#FBBC05"/>
  <path d="M319.5 52.7v79.6c0 32.8-19.3 40.7-38.2 40.7-21 0-33.1-10.5-37-22.9l17.3-7.3c2.7 7.2 9.7 12.2 19.7 12.2 12.4 0 20.2-6.5 20.2-21.7v-5.7h-.5c-3.6 4.8-10.7 7.9-18.7 7.9-17.9 0-35-15.2-35-44.1 0-28.1 17.1-43.7 35-43.7 7.9 0 15 3.2 18.7 8.2h.5V52.7h19.8zm-19 42.2c0-15.3-9.2-26.2-22.2-26.2s-22.7 11.1-22.7 26.4c0 14.6 9.7 26.1 22.7 26.1s22.2-11.1 22.2-26.3z" fill="#4285F4"/>
  <path d="M364.2 52.7v81.8h-19.6V52.7h19.6zm-9.8-13.6c6.6 0 12 4.8 12 10.9 0 6.1-5.4 10.9-12 10.9-6.5 0-12-4.8-12-10.9 0-6.1 5.5-10.9 12-10.9z" fill="#34A853"/>
  <path d="M435.5 94.4c0 25.5-20 44.4-44.5 44.4s-44.5-18.9-44.5-44.4S366.6 50 391 50s44.5 19 44.5 44.4zm-19.5 0c0-16-11.6-26.9-25-26.9s-25 10.9-25 26.9 11.6 26.9 25 26.9 25-10.9 25-26.9z" fill="#EA4335"/>
  <path d="M110.8 94.4c0 25.5-20 44.4-44.5 44.4S21.8 119.9 21.8 94.4 41.9 50 66.3 50s44.5 19 44.5 44.4zm-19.5 0c0-16-11.6-26.9-25-26.9s-25 10.9-25 26.9 11.6 26.9 25 26.9 25-10.9 25-26.9z" fill="#4285F4"/>
  <path d="M464.2 52.7v81.8h-19.6V52.7h19.6z" fill="#4285F4"/>
</svg>
